<?xml version="1.0" encoding="utf-8"?>
<svg version="1.2" xmlns:xlink="http://www.w3.org/1999/xlink" xmlns:svgjs="http://svgjs.dev/svgjs" width="1000" height="1000" viewBox="0 0 1000 1000" baseProfile="tiny-ps" xmlns="http://www.w3.org/2000/svg">
  <title>TechSSH Mail</title>
  <rect width="1000" height="1000" fill="#0f1a24"></rect>
  <g transform="matrix(0.7,0,0,0.7,150.000459375,106.25)">
    <svg viewBox="0 0 320 360" preserveAspectRatio="xMidYMid meet" height="1125" width="1000">
      <g id="tight-bounds" transform="matrix(1,0,0,1,-0.00020999999998139174,0)">
        <svg viewBox="0 0 320 360" height="360" width="320">
          <g>
            <svg></svg>
          </g>
          <g>
            <svg viewBox="0 0 320 360" height="360" width="320">
              <g>
                <path transform="translate(-17.77778,2.22222) scale(3.55556,3.55556)" d="M95 52c0-12.871-5.692-24.431-14.682-32.318-7.887-8.99-19.447-14.682-32.318-14.682-23.71 0-43 19.29-43 43 0 12.868 5.69 24.426 14.677 32.313 7.887 8.993 19.449 14.687 32.323 14.687 0.084 0 0.166-0.006 0.25-0.006 0.084 0 0.166 0.006 0.25 0.006 23.472 0 42.5-19.028 42.5-42.5 0-0.084-0.006-0.166-0.006-0.25 0-0.084 0.006-0.166 0.006-0.25zM21.828 73.371c-4.245-5.978-6.77-13.259-6.822-21.121 0.135-20.511 16.732-37.109 37.244-37.244 7.862 0.052 15.144 2.577 21.121 6.822 6.853 6.645 11.129 15.93 11.129 26.172 0 20.126-16.374 36.5-36.5 36.5-10.242 0-19.527-4.276-26.172-11.129zM6 48c0-23.159 18.841-42 42-42 9.858 0 18.926 3.422 26.1 9.13-6.463-3.888-14.024-6.13-22.1-6.13-23.71 0-43 19.29-43 43 0 8.074 2.241 15.633 6.127 22.095-5.706-7.172-9.127-16.239-9.127-26.095zM52 89c-10.08 0-19.227-4.055-25.905-10.615 6.174 4.469 13.743 7.115 21.905 7.115 20.678 0 37.5-16.822 37.5-37.5 0-8.162-2.646-15.731-7.115-21.905 6.56 6.678 10.615 15.825 10.615 25.905 0 20.402-16.598 37-37 37z" fill="#e0ddce" fill-rule="nonzero" stroke="none" stroke-width="1" stroke-linecap="butt" stroke-linejoin="miter" stroke-miterlimit="10" stroke-dasharray="" stroke-dashoffset="0" font-family="none" font-weight="none" font-size="none" text-anchor="none"></path>
              </g>
              <g transform="matrix(1,0,0,1,64,134.54094345934843)">
                <svg viewBox="0 0 192 90.91811308130316" height="90.91811308130316" width="192">
                  <g>
                    <svg viewBox="0 0 343.8205979049114 162.80999999999997" height="90.91811308130316" width="192">
                      <g>
                        <rect width="6.6882362846582275" height="162.80999999999997" x="204.22999093670884" y="0" fill="#56f41e" stroke-width="0" stroke="transparent" fill-opacity="1" rx="1%" id="i$-0"></rect>
                      </g>
                      <g transform="matrix(1,0,0,1,0,0.4049999999999869)">
                        <svg viewBox="0 0 186.72151898734177 162" height="162" width="186.72151898734177">
                          <g id="textblocktransform">
                            <svg viewBox="0 0 186.72151898734177 162" height="162" width="186.72151898734177">
                              <g>
                                <svg viewBox="0 0 186.72151898734177 162" height="162" width="186.72151898734177">
                                  <g transform="matrix(1,0,0,1,0,0)">
                                    <svg width="186.72151898734177" viewBox="-0.2500000000000018 -32.05 81.95 68.1" height="162">
                                      <svg></svg>
                                      <svg></svg>
                                      <g id="text-0">
                                        <path d="M20.75-31.05l-0.5 7.55h-5.8v23.5h-8.55v-23.5h-6.15l0.5-7.55zM32-17.4v0c-0.867 0-1.433 0.29-1.7 0.87-0.267 0.587-0.4 1.48-0.4 2.68v0h4.35v-1.2c0-1.567-0.75-2.35-2.25-2.35zM32.2-24.55v0c3.433 0 5.893 0.823 7.38 2.47 1.48 1.653 2.22 4.013 2.22 7.08v0c0 0.4-0.117 2.2-0.35 5.4v0h-11.4c0 2.5 1.15 3.75 3.45 3.75v0c1.1 0 3.25-0.383 6.45-1.15v0l0.7 6.2c-2.8 0.867-5.6 1.3-8.4 1.3v0c-3.433 0-6.067-1.127-7.9-3.38-1.833-2.247-2.75-5.303-2.75-9.17v0c0-8.333 3.533-12.5 10.6-12.5zM54.58-17.25c-0.987 0-1.647 0.44-1.98 1.32-0.333 0.887-0.5 2.263-0.5 4.13 0 1.867 0.16 3.217 0.48 4.05 0.313 0.833 0.98 1.25 2 1.25 1.013 0 2.337-0.183 3.97-0.55v0l0.9 6.4c-2.3 0.767-4.35 1.15-6.15 1.15v0c-3.167 0-5.557-1.067-7.17-3.2-1.62-2.133-2.43-5.117-2.43-8.95 0-3.833 0.833-6.943 2.5-9.33 1.667-2.38 4.083-3.57 7.25-3.57v0c2.367 0 4.5 0.4 6.4 1.2v0l-0.9 7.35c-1.933-0.833-3.39-1.25-4.37-1.25zM69.7-22.2h0.2c1.833-1.567 3.817-2.35 5.95-2.35 2.133 0 3.643 0.507 4.53 1.52 0.88 1.02 1.32 2.547 1.32 4.58v0 18.45h-8.5v-15.6c0-0.833-0.367-1.25-1.1-1.25v0c-0.933 0-1.717 0.233-2.35 0.7v0 16.15h-8.4v-32.05h8.35z" fill="#56f41e" fill-rule="nonzero" stroke="none" stroke-width="1" stroke-linecap="butt" stroke-linejoin="miter" stroke-miterlimit="10" stroke-dasharray="" stroke-dashoffset="0" font-family="none" font-weight="none" font-size="none" text-anchor="none"></path>
                                        <path transform="translate(0,35.55)" d="M0.8-21.7c0-2.967 0.867-5.35 2.6-7.15 1.733-1.8 4.11-2.7 7.13-2.7 3.013 0 6.103 0.3 9.27 0.9v0l-1 8c-3.3-0.767-5.567-1.15-6.8-1.15v0c-1.567 0-2.35 0.633-2.35 1.9v0c0 0.5 0.377 0.983 1.13 1.45 0.747 0.467 1.653 0.957 2.72 1.47 1.067 0.52 2.133 1.137 3.2 1.85 1.067 0.72 1.977 1.747 2.73 3.08 0.747 1.333 1.12 2.867 1.12 4.6v0c0 3.167-0.85 5.617-2.55 7.35-1.7 1.733-4.107 2.6-7.22 2.6-3.12 0-6.163-0.483-9.13-1.45v0l0.55-7.45c3.567 1.033 6.05 1.55 7.45 1.55 1.4 0 2.1-0.617 2.1-1.85v0c0-0.633-0.373-1.217-1.12-1.75-0.753-0.533-1.663-1.067-2.73-1.6-1.067-0.533-2.143-1.15-3.23-1.85-1.08-0.7-1.993-1.717-2.74-3.05-0.753-1.333-1.13-2.917-1.13-4.75zM22.15-21.7c0-2.967 0.867-5.35 2.6-7.15 1.733-1.8 4.11-2.7 7.13-2.7 3.013 0 6.103 0.3 9.27 0.9v0l-1 8c-3.3-0.767-5.567-1.15-6.8-1.15v0c-1.567 0-2.35 0.633-2.35 1.9v0c0 0.5 0.377 0.983 1.13 1.45 0.747 0.467 1.653 0.957 2.72 1.47 1.067 0.52 2.133 1.137 3.2 1.85 1.067 0.72 1.977 1.747 2.73 3.08 0.747 1.333 1.12 2.867 1.12 4.6v0c0 3.167-0.85 5.617-2.55 7.35-1.7 1.733-4.107 2.6-7.22 2.6-3.12 0-6.163-0.483-9.13-1.45v0l0.55-7.45c3.567 1.033 6.05 1.55 7.45 1.55 1.4 0 2.1-0.617 2.1-1.85v0c0-0.633-0.373-1.217-1.12-1.75-0.753-0.533-1.663-1.067-2.73-1.6-1.067-0.533-2.14-1.15-3.22-1.85-1.087-0.7-2.003-1.717-2.75-3.05-0.753-1.333-1.13-2.917-1.13-4.75zM67.85-31.05v31.05h-8.5v-11.75h-5.85v11.75h-8.6v-31.05h8.6v12.2h5.85v-12.2z" fill="#56f41e" fill-rule="nonzero" stroke="none" stroke-width="1" stroke-linecap="butt" stroke-linejoin="miter" stroke-miterlimit="10" stroke-dasharray="" stroke-dashoffset="0" font-family="none" font-weight="none" font-size="none" text-anchor="none"></path>
                                      </g>
                                    </svg>
                                  </g>
                                </svg>
                              </g>
                            </svg>
                          </g>
                        </svg>
                      </g>
                      <g transform="matrix(1,0,0,1,228.42669917073414,23.395443695254706)">
                        <svg viewBox="0 0 115.39389873417721 116.01911260949056" height="116.01911260949056" width="115.39389873417721">
                          <g>
                            <svg version="1.1" viewBox="5.242000000000001 5 89.51500017960318 90" height="116.01911260949056" width="115.39389873417721">
                              <path fill="#21e9dd" d="M85.434 5H14.566c-5.149 0-9.324 4.175-9.324 9.324v71.352c0 5.148 4.175 9.324 9.324 9.324h70.867c5.149 0 9.324-4.176 9.324-9.324V14.324C94.758 9.175 90.583 5 85.434 5zM41.501 38.479l-0.16 0.16-0.184 0.132c-1.031 0.742-2.207 1.605-3.595 2.642-1.519 1.132-2.852 2.13-4.077 3.049-1.417 1.062-2.783 2.081-4.062 3.03-1.293 0.96-2.515 1.854-3.632 2.659l-0.219 0.157-0.244 0.113c-0.926 0.426-1.86 0.643-2.78 0.643-1.448 0-2.739-0.501-3.731-1.449-1.028-0.979-1.573-2.269-1.573-3.727 0-1.292 0.421-2.52 1.25-3.649l0.245-0.333 0.331-0.249c0.857-0.644 1.871-1.396 3.01-2.233 1.155-0.851 2.302-1.707 3.406-2.546 1.205-0.914 2.374-1.788 3.474-2.598 0.016-0.012 0.031-0.022 0.046-0.034-1.079-0.83-2.211-1.711-3.364-2.618-1.185-0.93-2.346-1.833-3.449-2.683-1.134-0.872-2.09-1.627-2.837-2.244l-0.215-0.177-0.176-0.216c-0.971-1.193-1.463-2.501-1.463-3.887 0-1.432 0.527-2.716 1.526-3.715 0.999-0.998 2.306-1.526 3.778-1.526 0.736 0 1.527 0.166 2.417 0.508l0.229 0.087 0.21 0.127c0.298 0.179 0.717 0.479 1.789 1.367 0.719 0.596 1.605 1.295 2.641 2.081 1.077 0.819 2.23 1.721 3.43 2.679 1.164 0.932 2.281 1.804 3.321 2.593 1.092 0.832 2.029 1.56 2.786 2.164 0.748 0.6 1.229 0.983 1.441 1.153 1.882 1.487 2.278 3.235 2.278 4.439C43.349 35.406 43.028 36.951 41.501 38.479zM77.405 61.27c-0.808 0.888-1.924 1.512-3.32 1.862l-0.335 0.085H50.133l-0.127-0.012c-2.116-0.194-3.331-1.15-3.977-1.918-0.871-1.039-1.331-2.25-1.331-3.504 0-1.364 0.524-2.634 1.517-3.671 0.974-1.018 2.318-1.607 3.998-1.752l0.119-0.011h23.626l0.351 0.093c1.436 0.376 2.554 1.09 3.326 2.119 0.756 1.007 1.139 2.091 1.139 3.222C78.773 59.077 78.3 60.282 77.405 61.27z"></path>
                            </svg>
                          </g>
                        </svg>
                      </g>
                    </svg>
                  </g>
                </svg>
              </g>
            </svg>
          </g>
          <defs></defs>
        </svg>
        <rect width="320" height="360" fill="none" stroke="none"></rect>
      </g>
    </svg>
  </g>
</svg>